<svg viewBox="0 0 100 100" xmlns="http://www.w3.org/2000/svg">
  <rect x="2" y="2" width="96" height="96" rx="10" fill="#FFF3DC" stroke="#E3BE73" stroke-width="2" stroke-dasharray="4 3"/>
  <g transform="translate(50,56)">
    <circle cx="-20" cy="-20" r="9" fill="#EFC98A"/>
    <circle cx="20" cy="-20" r="9" fill="#EFC98A"/>
    <circle cx="-20" cy="-20" r="4.5" fill="#F5DDA8"/>
    <circle cx="20" cy="-20" r="4.5" fill="#F5DDA8"/>
    <ellipse cx="0" cy="0" rx="28" ry="24" fill="#F7DFA4"/>
    <ellipse cx="-16" cy="10" rx="10" ry="8" fill="#FBEBC0"/>
    <ellipse cx="16" cy="10" rx="10" ry="8" fill="#FBEBC0"/>
    <circle cx="-9" cy="-4" r="3" fill="#6B5A3F"/>
    <circle cx="9" cy="-4" r="3" fill="#6B5A3F"/>
    <ellipse cx="0" cy="4" rx="3" ry="2.5" fill="#D98F70"/>
    <path d="M0,6 C-2,9 -6,9 -7,6" stroke="#6B5A3F" stroke-width="1.2" fill="none"/>
    <path d="M0,6 C2,9 6,9 7,6" stroke="#6B5A3F" stroke-width="1.2" fill="none"/>
    <circle cx="-16" cy="10" r="2" fill="#E3A583"/>
    <circle cx="16" cy="10" r="2" fill="#E3A583"/>
  </g>
  <text x="50" y="90" font-family="sans-serif" font-size="9" fill="#B98858" text-anchor="middle">SQUEAK</text>
</svg>
