<svg viewBox="0 0 100 100" xmlns="http://www.w3.org/2000/svg">
  <rect x="2" y="2" width="96" height="96" rx="10" fill="#EAFBF1" stroke="#8FE0B2" stroke-width="2" stroke-dasharray="4 3"/>
  <g transform="translate(50,52)">
    <path d="M0,0 C-4,-14 -20,-14 -20,0 C-20,10 -8,10 0,0 Z" fill="#8ED9A6"/>
    <path d="M0,0 C14,-4 14,-20 0,-20 C-10,-20 -10,-8 0,0 Z" fill="#7ACB94"/>
    <path d="M0,0 C4,14 20,14 20,0 C20,-10 8,-10 0,0 Z" fill="#8ED9A6"/>
    <path d="M0,0 C-14,4 -14,20 0,20 C10,20 10,8 0,0 Z" fill="#7ACB94"/>
    <circle cx="0" cy="0" r="5" fill="#5FB37D"/>
  </g>
  <text x="50" y="88" font-family="sans-serif" font-size="9" fill="#5FB37D" text-anchor="middle">CLOVER</text>
</svg>
